<?xml version="1.0" encoding="utf-8"?>
<!-- Generator: Adobe Illustrator 23.0.5, SVG Export Plug-In . SVG Version: 6.00 Build 0)  -->
<svg version="1.1" id="Layer_1" xmlns="http://www.w3.org/2000/svg" xmlns:xlink="http://www.w3.org/1999/xlink" x="0px" y="0px"
	 viewBox="0 0 283 64" style="enable-background:new 0 0 283 64;" xml:space="preserve">
<style type="text/css">
	.st0{fill:none;stroke:#231F20;stroke-width:2.3275;stroke-miterlimit:10;}
	.st1{fill:#231F20;}
</style>
<g>
	<path class="st0" d="M108.66,53.83c0.13,0,0.2-0.14,0.14-0.24L95.02,29.7c-0.06-0.11-0.22-0.11-0.28,0L80.94,53.59
		c-0.06,0.11,0.02,0.24,0.14,0.24h-0.56c0.13,0,0.2-0.14,0.14-0.24L58.18,14.64c-0.06-0.11-0.22-0.11-0.28,0L35.41,53.59
		c-0.06,0.11,0.02,0.24,0.14,0.24h-0.56c0.13,0,0.2-0.14,0.14-0.24L21.34,29.7c-0.06-0.11-0.22-0.11-0.28,0L7.27,53.59
		c-0.06,0.11,0.02,0.24,0.14,0.24"/>
	<path class="st0" d="M36.24,17.52h-14c-1.74,0-3.41-1.4-3.61-3.13c-0.15-1.32,0.43-2.52,1.39-3.24c-0.06-0.31-0.09-0.63-0.06-0.96
		c0.11-1.68,1.43-3.07,3.1-3.27c0.99-0.12,1.9,0.17,2.6,0.72c1.15-2.67,3.89-4.49,7.02-4.27c3.59,0.25,6.46,3.25,6.57,6.85
		c0.02,0.54-0.03,1.08-0.13,1.59c0.56,0.72,0.85,1.66,0.71,2.67C39.58,16.24,38.02,17.52,36.24,17.52z"/>
	<g>
		<path class="st1" d="M144.12,53.86h-3.65l-2.03-5.59h-8.95l-2.03,5.59h-3.55l8.04-21.32h4.13L144.12,53.86z M130.45,45.47h7.01
			l-3.49-9.95L130.45,45.47z"/>
		<path class="st1" d="M168.6,37.72h3.75l-5.43,16.15h-3.78l-4.07-11.98l-3.84,11.98h-3.78l-5.39-16.15h3.71l3.68,12.76l4-12.76
			h3.46l4,12.76L168.6,37.72z"/>
		<path class="st1" d="M180.74,30.45v23.41h-3.46V30.45H180.74z M192.53,37.72l-7.2,7.36l-0.74,0.52l-5.07,5.26l-0.03-3.94l8.95-9.2
			H192.53z M185.75,43.14l7.17,10.72h-4l-5.75-8.75L185.75,43.14z"/>
		<path class="st1" d="M212.45,32.55v2.97h-7.3v18.34h-3.46V35.52h-7.3v-2.97H212.45z"/>
		<path class="st1" d="M215.55,53.86V37.72h2.94l0.32,2.91c0.43-1.06,1.07-1.86,1.92-2.41c0.85-0.55,1.9-0.82,3.15-0.82
			c0.32,0,0.65,0.03,0.97,0.08c0.32,0.05,0.59,0.13,0.81,0.24l-0.48,3.04c-0.24-0.09-0.5-0.16-0.79-0.21
			c-0.29-0.05-0.68-0.08-1.18-0.08c-0.67,0-1.32,0.18-1.97,0.53s-1.18,0.89-1.6,1.6c-0.42,0.71-0.63,1.61-0.63,2.71v8.56H215.55z"/>
		<path class="st1" d="M232.28,35c-0.75,0-1.33-0.19-1.73-0.57c-0.4-0.38-0.6-0.91-0.6-1.6c0-0.69,0.2-1.22,0.6-1.58
			c0.4-0.37,0.97-0.55,1.73-0.55c0.73,0,1.3,0.18,1.7,0.55c0.4,0.37,0.6,0.89,0.6,1.58c0,0.69-0.2,1.22-0.6,1.6
			C233.58,34.81,233.01,35,232.28,35z M233.99,37.72v16.15h-3.46V37.72H233.99z"/>
		<path class="st1" d="M241,60.65V37.72h3.07l0.26,4.52l-0.45-0.55c0.26-0.84,0.66-1.58,1.2-2.23c0.54-0.65,1.21-1.15,2.02-1.52
			c0.81-0.37,1.7-0.55,2.66-0.55c1.31,0,2.51,0.33,3.58,1c1.08,0.67,1.93,1.62,2.55,2.86c0.62,1.24,0.94,2.74,0.94,4.51
			s-0.32,3.28-0.95,4.54c-0.64,1.26-1.5,2.22-2.58,2.89c-1.09,0.67-2.3,1-3.63,1c-1.38,0-2.55-0.36-3.52-1.08
			c-0.97-0.72-1.66-1.64-2.07-2.76l0.39-0.55v10.85H241z M248.91,51.38c1.4,0,2.49-0.5,3.28-1.49c0.79-0.99,1.18-2.36,1.18-4.1
			s-0.39-3.12-1.16-4.12c-0.78-1-1.85-1.5-3.23-1.5c-0.9,0-1.7,0.23-2.37,0.69s-1.21,1.11-1.58,1.94c-0.38,0.83-0.57,1.83-0.57,2.99
			c0,1.14,0.18,2.13,0.55,2.97c0.37,0.84,0.88,1.49,1.55,1.94C247.22,51.15,248.01,51.38,248.91,51.38z"/>
		<path class="st1" d="M269,54.19c-1.61,0-3.09-0.31-4.42-0.94c-1.34-0.62-2.39-1.51-3.17-2.65l2.39-2.07
			c0.47,0.88,1.16,1.59,2.05,2.12c0.89,0.53,1.96,0.79,3.21,0.79c0.99,0,1.78-0.17,2.36-0.52c0.58-0.34,0.87-0.83,0.87-1.45
			c0-0.41-0.13-0.77-0.4-1.08s-0.78-0.55-1.53-0.73l-3.39-0.71c-1.72-0.34-2.95-0.9-3.68-1.66c-0.73-0.76-1.1-1.74-1.1-2.92
			c0-0.88,0.26-1.7,0.78-2.45c0.52-0.75,1.28-1.36,2.28-1.82c1-0.46,2.2-0.69,3.6-0.69c1.61,0,2.99,0.29,4.13,0.86
			c1.14,0.57,2.01,1.38,2.62,2.44l-2.39,2c-0.41-0.86-1.01-1.5-1.81-1.92c-0.8-0.42-1.63-0.63-2.49-0.63
			c-0.69,0-1.28,0.09-1.78,0.26c-0.5,0.17-0.87,0.41-1.13,0.71c-0.26,0.3-0.39,0.66-0.39,1.07c0,0.43,0.16,0.81,0.48,1.13
			c0.32,0.32,0.9,0.57,1.74,0.74l3.68,0.78c1.55,0.3,2.64,0.81,3.28,1.53c0.63,0.72,0.95,1.6,0.95,2.63c0,1.03-0.27,1.94-0.81,2.73
			c-0.54,0.79-1.31,1.39-2.33,1.82C271.61,53.97,270.4,54.19,269,54.19z"/>
	</g>
</g>
</svg>
