<?xml version="1.0" encoding="utf-8"?>
<!-- Generator: Adobe Illustrator 23.0.5, SVG Export Plug-In . SVG Version: 6.00 Build 0)  -->
<svg version="1.1" id="Layer_1" xmlns="http://www.w3.org/2000/svg" xmlns:xlink="http://www.w3.org/1999/xlink" x="0px" y="0px"
	 viewBox="0 0 1280 720" style="enable-background:new 0 0 1280 720;" xml:space="preserve">
<style type="text/css">
	.st0{fill:none;stroke:#000000;stroke-width:12;stroke-linecap:round;stroke-miterlimit:10;}
	.st1{fill:none;stroke:#000000;stroke-width:12;stroke-linecap:round;stroke-miterlimit:10;stroke-dasharray:0,58.3766;}
</style>
<g>
	<g>
		<g>
			<line class="st0" x1="-89.71" y1="32.28" x2="-89.71" y2="32.28"/>
			<line class="st1" x1="-31.33" y1="32.28" x2="1340.52" y2="32.28"/>
			<line class="st0" x1="1369.71" y1="32.28" x2="1369.71" y2="32.28"/>
		</g>
	</g>
	<g>
		<g>
			<line class="st0" x1="-89.71" y1="75.97" x2="-89.71" y2="75.97"/>
			<line class="st1" x1="-31.33" y1="75.97" x2="1340.52" y2="75.97"/>
			<line class="st0" x1="1369.71" y1="75.97" x2="1369.71" y2="75.97"/>
		</g>
	</g>
	<g>
		<g>
			<line class="st0" x1="-89.71" y1="119.67" x2="-89.71" y2="119.67"/>
			<line class="st1" x1="-31.33" y1="119.67" x2="1340.52" y2="119.67"/>
			<line class="st0" x1="1369.71" y1="119.67" x2="1369.71" y2="119.67"/>
		</g>
	</g>
	<g>
		<g>
			<line class="st0" x1="-89.71" y1="163.37" x2="-89.71" y2="163.37"/>
			<line class="st1" x1="-31.33" y1="163.37" x2="1340.52" y2="163.37"/>
			<line class="st0" x1="1369.71" y1="163.37" x2="1369.71" y2="163.37"/>
		</g>
	</g>
	<g>
		<g>
			<line class="st0" x1="-89.71" y1="207.06" x2="-89.71" y2="207.06"/>
			<line class="st1" x1="-31.33" y1="207.06" x2="1340.52" y2="207.06"/>
			<line class="st0" x1="1369.71" y1="207.06" x2="1369.71" y2="207.06"/>
		</g>
	</g>
	<g>
		<g>
			<line class="st0" x1="-89.71" y1="250.76" x2="-89.71" y2="250.76"/>
			<line class="st1" x1="-31.33" y1="250.76" x2="1340.52" y2="250.76"/>
			<line class="st0" x1="1369.71" y1="250.76" x2="1369.71" y2="250.76"/>
		</g>
	</g>
	<g>
		<g>
			<line class="st0" x1="-89.71" y1="294.46" x2="-89.71" y2="294.46"/>
			<line class="st1" x1="-31.33" y1="294.46" x2="1340.52" y2="294.46"/>
			<line class="st0" x1="1369.71" y1="294.46" x2="1369.71" y2="294.46"/>
		</g>
	</g>
	<g>
		<g>
			<line class="st0" x1="-89.71" y1="338.15" x2="-89.71" y2="338.15"/>
			<line class="st1" x1="-31.33" y1="338.15" x2="1340.52" y2="338.15"/>
			<line class="st0" x1="1369.71" y1="338.15" x2="1369.71" y2="338.15"/>
		</g>
	</g>
	<g>
		<g>
			<line class="st0" x1="-89.71" y1="381.85" x2="-89.71" y2="381.85"/>
			<line class="st1" x1="-31.33" y1="381.85" x2="1340.52" y2="381.85"/>
			<line class="st0" x1="1369.71" y1="381.85" x2="1369.71" y2="381.85"/>
		</g>
	</g>
	<g>
		<g>
			<line class="st0" x1="-89.71" y1="425.54" x2="-89.71" y2="425.54"/>
			<line class="st1" x1="-31.33" y1="425.54" x2="1340.52" y2="425.54"/>
			<line class="st0" x1="1369.71" y1="425.54" x2="1369.71" y2="425.54"/>
		</g>
	</g>
	<g>
		<g>
			<line class="st0" x1="-89.71" y1="469.24" x2="-89.71" y2="469.24"/>
			<line class="st1" x1="-31.33" y1="469.24" x2="1340.52" y2="469.24"/>
			<line class="st0" x1="1369.71" y1="469.24" x2="1369.71" y2="469.24"/>
		</g>
	</g>
	<g>
		<g>
			<line class="st0" x1="-89.71" y1="512.94" x2="-89.71" y2="512.94"/>
			<line class="st1" x1="-31.33" y1="512.94" x2="1340.52" y2="512.94"/>
			<line class="st0" x1="1369.71" y1="512.94" x2="1369.71" y2="512.94"/>
		</g>
	</g>
	<g>
		<g>
			<line class="st0" x1="-89.71" y1="556.63" x2="-89.71" y2="556.63"/>
			<line class="st1" x1="-31.33" y1="556.63" x2="1340.52" y2="556.63"/>
			<line class="st0" x1="1369.71" y1="556.63" x2="1369.71" y2="556.63"/>
		</g>
	</g>
	<g>
		<g>
			<line class="st0" x1="-89.71" y1="600.33" x2="-89.71" y2="600.33"/>
			<line class="st1" x1="-31.33" y1="600.33" x2="1340.52" y2="600.33"/>
			<line class="st0" x1="1369.71" y1="600.33" x2="1369.71" y2="600.33"/>
		</g>
	</g>
	<g>
		<g>
			<line class="st0" x1="-89.71" y1="644.03" x2="-89.71" y2="644.03"/>
			<line class="st1" x1="-31.33" y1="644.03" x2="1340.52" y2="644.03"/>
			<line class="st0" x1="1369.71" y1="644.03" x2="1369.71" y2="644.03"/>
		</g>
	</g>
	<g>
		<g>
			<line class="st0" x1="-89.71" y1="687.72" x2="-89.71" y2="687.72"/>
			<line class="st1" x1="-31.33" y1="687.72" x2="1340.52" y2="687.72"/>
			<line class="st0" x1="1369.71" y1="687.72" x2="1369.71" y2="687.72"/>
		</g>
	</g>
</g>
</svg>
